<?xml version="1.0" encoding="UTF-8"?>
<svg width="200" height="40" viewBox="0 0 200 40" fill="none" xmlns="http://www.w3.org/2000/svg">
  <g>
    <path d="M40 20C40 31.0457 31.0457 40 20 40C8.9543 40 0 31.0457 0 20C0 8.9543 8.9543 0 20 0C31.0457 0 40 8.9543 40 20Z" fill="#FFFFFF"/>
    <path d="M19.5 8C14.2533 8 10 12.2533 10 17.5C10 22.7467 14.2533 27 19.5 27C24.7467 27 29 22.7467 29 17.5C29 12.2533 24.7467 8 19.5 8ZM19.5 25C15.364 25 12 21.636 12 17.5C12 13.364 15.364 10 19.5 10C23.636 10 27 13.364 27 17.5C27 21.636 23.636 25 19.5 25Z" fill="#6B46C1"/>
    <path d="M19.5 12C16.4624 12 14 14.4624 14 17.5C14 20.5376 16.4624 23 19.5 23C22.5376 23 25 20.5376 25 17.5C25 14.4624 22.5376 12 19.5 12ZM19.5 21C17.567 21 16 19.433 16 17.5C16 15.567 17.567 14 19.5 14C21.433 14 23 15.567 23 17.5C23 19.433 21.433 21 19.5 21Z" fill="#6B46C1"/>
  </g>
  <text x="50" y="25" font-family="Arial" font-size="20" font-weight="bold" fill="#FFFFFF">athenahealth</text>
</svg> 